<svg id="Layer_1" data-name="Layer 1" xmlns="http://www.w3.org/2000/svg" viewBox="0 0 1000 1000"><defs><style>.cls-1{fill:#732b90;}</style></defs><path class="cls-1" d="M281.47,136.52h.4A48.15,48.15,0,0,1,327.39,169l208.7,603.91a31.44,31.44,0,0,1-29.72,41.72h0a49.29,49.29,0,0,1-46.63-33.31L403.22,616.52H146L80.12,814.17H7.43l222.39-640.9A54.66,54.66,0,0,1,281.47,136.52Zm-22.9,412H379.41L275.1,243.19h-1.92L197.46,462.84C183,504.81,214.17,548.55,258.57,548.55Z"/><path class="cls-1" d="M984.78,319.48c5.5,4.69,10,13.38,6.64,24.41l-132.5,437.9a48,48,0,0,1-45.41,32.47h0a52.22,52.22,0,0,1-50.18-37.77l-98.68-342.7a1.91,1.91,0,0,0-1.84-1.38h0a1.92,1.92,0,0,0-1.83,1.37L560.19,777.84a50.67,50.67,0,0,1-48.62,36.42h0a51.7,51.7,0,0,1-48.78-34.55L303,325.05a1.89,1.89,0,0,1,.92-2.32l63-32.82a1.91,1.91,0,0,1,2.69,1.06l146,422a1.9,1.9,0,0,0,1.8,1.28h1a1.9,1.9,0,0,0,1.83-1.38L625.62,341.52a39,39,0,0,1,37.46-28.31h0A44.65,44.65,0,0,1,706,345.59L811.1,712.87a1.9,1.9,0,0,0,1.83,1.38h1a1.9,1.9,0,0,0,1.82-1.33L936.18,331.8c3.11-9.86,8.52-14.62,18.18-18.31C963.54,310,975.65,311.7,984.78,319.48Z"/></svg>